<?xml version="1.0" standalone="no"?>
<!DOCTYPE svg PUBLIC "-//W3C//DTD SVG 20010904//EN"
 "http://www.w3.org/TR/2001/REC-SVG-20010904/DTD/svg10.dtd">
<svg version="1.0" xmlns="http://www.w3.org/2000/svg"
 width="260.000000pt" height="260.000000pt" viewBox="0 0 260.000000 260.000000"
 preserveAspectRatio="xMidYMid meet">
<metadata>
Created by potrace 1.11, written by Peter Selinger 2001-2013
</metadata>
<g transform="translate(0.000000,260.000000) scale(0.100000,-0.100000)"
fill="#000000" stroke="none">
<path d="M0 1300 l0 -1300 1300 0 1300 0 0 1300 0 1300 -1300 0 -1300 0 0
-1300z m2326 692 c6 -4 41 -92 77 -197 36 -104 86 -248 111 -319 25 -70 46
-135 46 -142 0 -11 -25 -14 -124 -14 l-124 0 -14 43 -15 42 -118 0 -119 0 -9
-35 c-5 -19 -14 -38 -20 -43 -10 -6 -236 1 -245 8 -2 2 125 374 194 570 l29
80 60 6 c91 9 259 10 271 1z m-1189 -14 c4 -7 20 -46 34 -87 l25 -74 31 84 30
84 124 0 124 0 25 -72 c14 -39 28 -74 31 -77 3 -4 19 28 35 71 l30 78 124 0
c105 0 125 -2 123 -15 -1 -8 -24 -80 -52 -160 -28 -80 -77 -221 -109 -315
l-59 -170 -91 -3 -90 -3 -42 126 c-23 69 -45 125 -49 125 -4 0 -27 -55 -52
-122 l-45 -123 -88 0 -89 0 -73 214 c-40 117 -75 215 -77 218 -2 2 -56 2 -120
1 l-115 -3 69 -93 c63 -86 69 -98 69 -143 0 -82 -46 -152 -122 -184 -31 -12
-93 -15 -378 -15 l-341 0 3 123 3 122 258 5 258 5 -55 65 c-31 36 -61 80 -67
98 -27 80 25 186 111 230 43 21 54 22 322 22 208 0 279 -3 285 -12z m226 -692
c93 -34 167 -126 167 -208 0 -73 -38 -138 -114 -196 -26 -20 -40 -22 -157 -22
-71 0 -130 -3 -130 -7 -1 -5 -4 -55 -8 -113 l-6 -105 -130 0 -130 0 -3 333 -2
332 237 0 c173 -1 248 -5 276 -14z m457 -318 l-5 -333 -130 0 -130 0 -3 333
-2 332 137 0 138 0 -5 -332z"/>
<path d="M2017 1908 c-8 -24 -25 -70 -36 -103 -79 -223 -142 -417 -138 -421 3
-3 36 -7 74 -7 l68 -2 15 43 15 42 150 -2 150 -3 15 -42 14 -43 78 0 c43 0 78
1 78 3 0 1 -16 47 -36 102 -65 187 -136 390 -149 430 l-12 40 -136 3 -135 3
-15 -43z m204 -183 c25 -75 43 -138 40 -140 -6 -7 -187 -6 -193 1 -4 3 2 24
11 47 10 23 33 84 52 135 18 50 36 92 39 92 3 0 26 -61 51 -135z"/>
<path d="M2148 1681 l-16 -51 35 0 c37 0 38 2 9 74 l-11 28 -17 -51z"/>
<path d="M540 1922 c-45 -24 -80 -85 -80 -138 0 -36 8 -50 63 -115 74 -87 80
-100 61 -128 -15 -20 -22 -21 -265 -21 l-249 0 0 -75 0 -75 315 0 c339 0 365
3 399 51 9 13 21 41 27 61 13 49 -1 79 -80 183 -62 81 -71 104 -48 123 6 5 79
11 161 13 l149 4 58 -170 c31 -93 65 -192 74 -218 l17 -48 56 3 55 3 44 120
c25 66 51 141 60 168 17 55 28 59 42 15 5 -18 32 -96 59 -173 l48 -140 55 0
54 0 32 90 c98 279 163 470 163 477 0 5 -34 8 -76 6 l-76 -3 -25 -65 c-14 -36
-32 -89 -41 -117 -8 -29 -19 -53 -24 -53 -10 0 -32 50 -67 155 l-28 80 -89 3
-90 3 -21 -53 c-11 -29 -31 -83 -44 -120 -12 -38 -26 -68 -29 -68 -8 0 -26 42
-66 155 l-29 80 -265 3 c-243 2 -268 1 -300 -16z"/>
<path d="M900 966 l0 -286 85 0 85 0 0 94 c0 52 3 101 6 110 5 13 26 16 128
16 95 0 129 4 161 19 49 22 99 76 115 125 17 52 -21 133 -81 173 l-42 28 -229
3 -228 3 0 -285z m405 149 c34 -33 32 -67 -6 -99 -27 -23 -39 -26 -114 -26
-115 0 -115 0 -115 74 0 35 3 66 7 69 3 4 51 7 105 7 92 0 101 -2 123 -25z"/>
<path d="M1128 1094 c-5 -4 -8 -18 -8 -31 0 -22 3 -23 75 -23 59 0 77 3 82 16
3 8 1 20 -6 27 -13 13 -132 23 -143 11z"/>
<path d="M1600 965 l0 -285 85 0 85 0 0 285 0 285 -85 0 -85 0 0 -285z"/>
</g>
</svg>
